<svg width="21" height="21" viewBox="0 0 21 21" fill="none" xmlns="http://www.w3.org/2000/svg">
<path d="M8.74995 12L19.7499 1M8.74995 12L12.2499 19C12.2938 19.0957 12.3643 19.1769 12.4529 19.2338C12.5415 19.2906 12.6446 19.3209 12.7499 19.3209C12.8553 19.3209 12.9584 19.2906 13.047 19.2338C13.1356 19.1769 13.2061 19.0957 13.2499 19L19.7499 1M8.74995 12L1.74995 8.5C1.65421 8.45613 1.57307 8.38569 1.51619 8.29705C1.45931 8.20842 1.42908 8.10532 1.42908 8C1.42908 7.89468 1.45931 7.79158 1.51619 7.70295C1.57307 7.61431 1.65421 7.54387 1.74995 7.5L19.7499 1" stroke="white" stroke-width="2" stroke-linecap="round" stroke-linejoin="round"/>
</svg>
