<svg width="32" height="24" viewBox="0 0 32 24" fill="none" xmlns="http://www.w3.org/2000/svg">
<path d="M3.55385 5.21423H23.3753C24.7245 5.21423 25.8217 6.31145 25.8217 7.66066V21.0535C25.8217 22.4027 24.7245 23.4999 23.3753 23.4999H3.55385C2.20464 23.4999 1.10742 22.4027 1.10742 21.0535V7.66066C1.10742 6.31145 2.20464 5.21423 3.55385 5.21423ZM11.8217 11.6785C11.8217 9.92595 10.3957 8.49995 8.64314 8.49995C6.89057 8.49995 5.46456 9.92595 5.46456 11.6785C5.46456 13.4311 6.89057 14.8571 8.64314 14.8571C10.3957 14.8571 11.8217 13.4311 11.8217 11.6785ZM12.661 20.2142C13.3807 20.2142 13.9646 19.6304 13.9646 18.9107V18.3749C13.9646 16.4734 12.4196 14.9285 10.5181 14.9285H6.76814C4.86664 14.9285 3.32171 16.4734 3.32171 18.3749V18.9107C3.32171 19.6304 3.90557 20.2142 4.62528 20.2142H12.661ZM16.411 20.2142H22.3039C23.0236 20.2142 23.6074 19.6304 23.6074 18.9107C23.6074 18.1909 23.0236 17.6071 22.3039 17.6071H16.411C15.6913 17.6071 15.1074 18.1909 15.1074 18.9107C15.1074 19.6304 15.6913 20.2142 16.411 20.2142ZM16.411 15.9285H22.3039C23.0236 15.9285 23.6074 15.3447 23.6074 14.6249C23.6074 13.9052 23.0236 13.3214 22.3039 13.3214H16.411C15.6913 13.3214 15.1074 13.9052 15.1074 14.6249C15.1074 15.3447 15.6913 15.9285 16.411 15.9285ZM16.411 11.6428H22.3039C23.0236 11.6428 23.6074 11.0589 23.6074 10.3392C23.6074 9.61952 23.0236 9.03566 22.3039 9.03566H16.411C15.6913 9.03566 15.1074 9.61952 15.1074 10.3392C15.1074 11.0589 15.6913 11.6428 16.411 11.6428Z" fill="#5A42E6" fill-opacity="0.35" stroke="#5A42E6"/>
<circle cx="27.2846" cy="4.71429" r="4.21429" fill="white" stroke="#5A42E6"/>
<path d="M27.2002 0.836792C25.7658 0.837231 24.5218 1.65182 23.9051 2.84356C24.0774 2.76718 24.2522 2.69706 24.429 2.63327C25.046 1.73307 26.0775 1.17484 27.2013 1.17865M27.2002 0.836792L30.4953 2.84249C30.3237 2.76652 30.1498 2.69676 29.9738 2.63327C29.3568 1.73307 28.3253 1.17484 27.2013 1.17865M27.2002 0.836792L27.2013 1.17865M27.2002 0.836792L27.2013 1.17865M30.1294 3.77428L30.8852 4.11447C30.8921 4.1735 30.8977 4.23296 30.9018 4.29281H30.5565C29.7204 4.29281 28.9288 4.83241 28.3753 5.47518C27.8148 6.12596 27.3946 6.99943 27.3946 7.84118V8.25023C27.3306 8.25352 27.2662 8.25518 27.2013 8.25518C27.1365 8.25518 27.0721 8.25352 27.0082 8.25024V7.84118C27.0082 6.99943 26.5879 6.12596 26.0275 5.47519C25.474 4.83242 24.6824 4.29281 23.8464 4.29281H23.5007C23.5047 4.23305 23.5102 4.17367 23.517 4.11472L24.2733 3.77428C25.192 3.36079 26.1894 3.15145 27.1968 3.16058L27.1968 3.16066L27.2059 3.16058C28.2133 3.15145 29.2108 3.36079 30.1294 3.77428ZM23.8782 2.89645L24.0681 3.31834L23.8782 2.89645ZM26.07 4.54595C26.07 5.17088 26.5766 5.67733 27.2013 5.67733C27.8262 5.67733 28.3327 5.17085 28.3327 4.54595C28.3327 3.92117 27.8263 3.41457 27.2013 3.41457C26.5765 3.41457 26.07 3.92113 26.07 4.54595Z" fill="#5A42E6" fill-opacity="0.35" stroke="#5A42E6"/>
</svg>
