<svg width="29" height="30" viewBox="0 0 29 30" fill="none" xmlns="http://www.w3.org/2000/svg">
<path d="M14.5 0.75C6.64192 0.75 0.25 7.1435 0.25 15C0.25 22.8565 6.64192 29.25 14.5 29.25C22.3581 29.25 28.75 22.8565 28.75 15C28.75 7.1435 22.3581 0.75 14.5 0.75ZM14.5 26.0833C8.38992 26.0833 3.41667 21.1117 3.41667 15C3.41667 8.88833 8.38992 3.91667 14.5 3.91667C20.6101 3.91667 25.5833 8.88833 25.5833 15C25.5833 21.1117 20.6101 26.0833 14.5 26.0833ZM15.6194 15L19.8089 10.8105C19.9566 10.6616 20.0394 10.4605 20.0394 10.2508C20.0394 10.0411 19.9566 9.83995 19.8089 9.69108C19.66 9.54344 19.4589 9.4606 19.2492 9.4606C19.0395 9.4606 18.8384 9.54344 18.6895 9.69108L14.5 13.8806L10.3105 9.6895C10.1612 9.54529 9.96121 9.4655 9.75364 9.4673C9.54607 9.4691 9.34751 9.55236 9.20073 9.69914C9.05395 9.84593 8.97069 10.0445 8.96888 10.2521C8.96708 10.4596 9.04688 10.6596 9.19108 10.8089L13.3806 15L9.19108 19.1895C9.04243 19.3379 8.95883 19.5394 8.95868 19.7494C8.95854 19.9595 9.04185 20.1611 9.19029 20.3097C9.33874 20.4584 9.54015 20.542 9.75023 20.5421C9.96031 20.5423 10.1618 20.4589 10.3105 20.3105L14.5 16.1194L18.6895 20.3089C18.7624 20.3846 18.8497 20.4451 18.9462 20.4867C19.0427 20.5283 19.1466 20.5503 19.2517 20.5513C19.3568 20.5524 19.4611 20.5325 19.5584 20.4928C19.6558 20.4532 19.7442 20.3945 19.8187 20.3203C19.8931 20.2461 19.952 20.1578 19.992 20.0605C20.0319 19.9633 20.0521 19.8591 20.0513 19.754C20.0506 19.6489 20.0289 19.5449 19.9875 19.4483C19.9462 19.3517 19.886 19.2642 19.8105 19.1911L15.6194 15Z" fill="#FF0000"/>
</svg>
