<svg width="31" height="30" viewBox="0 0 31 30" fill="none" xmlns="http://www.w3.org/2000/svg">
<path d="M26.875 0.375H4.125C3.26305 0.375 2.4364 0.71741 1.8269 1.3269C1.21741 1.9364 0.875 2.76305 0.875 3.625V26.375C0.875 27.237 1.21741 28.0636 1.8269 28.6731C2.4364 29.2826 3.26305 29.625 4.125 29.625H26.875C28.6625 29.625 30.125 28.1625 30.125 26.375V3.625C30.125 1.8375 28.6625 0.375 26.875 0.375ZM26.875 26.375H4.125V3.625H26.875V26.375ZM13.875 23.125H17.125V16.625H23.625V13.375H17.125V6.875H13.875V13.375H7.375V16.625H13.875V23.125Z" fill="black"/>
</svg>
