<svg width="37" height="37" viewBox="0 0 37 37" fill="none" xmlns="http://www.w3.org/2000/svg">
<path d="M26.8335 13.5033C30.4585 13.5233 32.4218 13.685 33.7018 14.965C35.1668 16.43 35.1668 18.7866 35.1668 23.5V25.1666C35.1668 29.8816 35.1668 32.2383 33.7018 33.7033C32.2385 35.1666 29.8802 35.1666 25.1668 35.1666H11.8335C7.12016 35.1666 4.76183 35.1666 3.2985 33.7033C1.8335 32.2366 1.8335 29.8816 1.8335 25.1666V23.5C1.8335 18.7866 1.8335 16.43 3.2985 14.965C4.5785 13.685 6.54183 13.5233 10.1668 13.5033" stroke="#EBAF29" stroke-width="3" stroke-linecap="round"/>
<path d="M18.5 1.83331V23.5M18.5 23.5L13.5 17.6666M18.5 23.5L23.5 17.6666" stroke="#EBAF29" stroke-width="3" stroke-linecap="round" stroke-linejoin="round"/>
</svg>
