<svg width="21" height="20" viewBox="0 0 21 20" fill="none" xmlns="http://www.w3.org/2000/svg">
<path d="M17.3 2.91006C16.3832 1.98399 15.2912 1.24973 14.0877 0.750111C12.8841 0.250494 11.5932 -0.00448012 10.29 5.95696e-05C4.83005 5.95696e-05 0.380049 4.45006 0.380049 9.91006C0.380049 11.6601 0.840049 13.3601 1.70005 14.8601L0.300049 20.0001L5.55005 18.6201C7.00005 19.4101 8.63005 19.8301 10.29 19.8301C15.75 19.8301 20.2 15.3801 20.2 9.92006C20.2 7.27006 19.17 4.78006 17.3 2.91006ZM10.29 18.1501C8.81005 18.1501 7.36005 17.7501 6.09005 17.0001L5.79005 16.8201L2.67005 17.6401L3.50005 14.6001L3.30005 14.2901C2.47779 12.977 2.04119 11.4593 2.04005 9.91006C2.04005 5.37006 5.74005 1.67006 10.28 1.67006C12.48 1.67006 14.55 2.53006 16.1 4.09006C16.8675 4.85402 17.4757 5.76272 17.8894 6.76348C18.3031 7.76425 18.5141 8.83717 18.51 9.92006C18.53 14.4601 14.83 18.1501 10.29 18.1501ZM14.81 11.9901C14.56 11.8701 13.34 11.2701 13.12 11.1801C12.89 11.1001 12.73 11.0601 12.56 11.3001C12.39 11.5501 11.92 12.1101 11.78 12.2701C11.64 12.4401 11.49 12.4601 11.24 12.3301C10.99 12.2101 10.19 11.9401 9.25005 11.1001C8.51005 10.4401 8.02005 9.63006 7.87005 9.38006C7.73005 9.13006 7.85005 9.00006 7.98005 8.87006C8.09005 8.76006 8.23005 8.58006 8.35005 8.44006C8.47005 8.30006 8.52005 8.19006 8.60005 8.03006C8.68005 7.86006 8.64005 7.72006 8.58005 7.60006C8.52005 7.48006 8.02005 6.26006 7.82005 5.76006C7.62005 5.28006 7.41005 5.34006 7.26005 5.33006H6.78005C6.61005 5.33006 6.35005 5.39006 6.12005 5.64006C5.90005 5.89006 5.26005 6.49006 5.26005 7.71006C5.26005 8.93006 6.15005 10.1101 6.27005 10.2701C6.39005 10.4401 8.02005 12.9401 10.5 14.0101C11.09 14.2701 11.55 14.4201 11.91 14.5301C12.5 14.7201 13.04 14.6901 13.47 14.6301C13.95 14.5601 14.94 14.0301 15.14 13.4501C15.35 12.8701 15.35 12.3801 15.28 12.2701C15.21 12.1601 15.06 12.1101 14.81 11.9901Z" fill="#25D355"/>
</svg>
